<svg width="27" height="26" viewBox="0 0 27 26" fill="none" xmlns="http://www.w3.org/2000/svg">
<path d="M12.5223 1.5528C12.7485 0.499418 14.2515 0.49942 14.4777 1.5528L16.2125 9.63087C16.3196 10.1297 16.7851 10.4679 17.2926 10.4156L25.5114 9.56924C26.5831 9.45887 27.0476 10.8883 26.1156 11.429L18.969 15.5751C18.5277 15.8311 18.3499 16.3783 18.5564 16.8449L21.9012 24.3998C22.3373 25.385 21.1214 26.2684 20.3192 25.5492L14.1676 20.0336C13.7877 19.6929 13.2123 19.6929 12.8324 20.0336L6.68081 25.5492C5.87864 26.2684 4.66269 25.385 5.09885 24.3998L8.44357 16.8449C8.65011 16.3783 8.47231 15.8311 8.03099 15.5751L0.884355 11.429C-0.0475693 10.8883 0.416882 9.45887 1.48861 9.56924L9.70738 10.4156C10.2149 10.4679 10.6804 10.1297 10.7875 9.63087L12.5223 1.5528Z" fill="#FED97C"/>
</svg>
